<?xml version="1.0" encoding="UTF-8"?>
<svg width="22px" height="22px" viewBox="0 0 22 22" version="1.1" xmlns="http://www.w3.org/2000/svg" xmlns:xlink="http://www.w3.org/1999/xlink">
    <title>5F385440-8951-4080-B467-8322F017C8D4</title>
    <g id="Page-2" stroke="none" stroke-width="1" fill="none" fill-rule="evenodd">
        <g id="Priscription-b" transform="translate(-593.000000, -446.000000)" fill="#FFFFFF" fill-rule="nonzero">
            <g id="noun_Upload_1157132" transform="translate(593.000000, 446.000000)">
                <path d="M20.885212,22 L1.09203723,22 C0.500517063,22 0,21.5436868 0,20.9504796 L0,10.9115893 C0,10.3411978 0.477766287,9.86206897 1.09203723,9.86206897 C1.70630817,9.86206897 2.18407446,10.3183822 2.18407446,10.9115893 L2.18407446,19.923775 L19.8159255,19.923775 L19.8159255,10.9115893 C19.8159255,10.3411978 20.2936918,9.86206897 20.9079628,9.86206897 C21.5222337,9.86206897 22,10.3183822 22,10.9115893 L22,20.9504796 C21.9544984,21.5208711 21.4767322,22 20.885212,22 Z" id="Path"></path>
                <path d="M15.6126412,4.3679828 L11.4053016,0.29706684 C10.9959389,-0.09902228 10.3136676,-0.09902228 9.88156243,0.29706684 L5.62873809,4.3679828 C5.42405671,4.56602736 5.31034483,4.83008677 5.31034483,5.11615113 C5.31034483,5.4022155 5.42405671,5.64426996 5.62873809,5.84231452 C5.83341948,6.04035908 6.10632799,6.15038384 6.37923651,6.15038384 C6.6748874,6.15038384 6.94779591,6.04035908 7.15247729,5.84231452 L9.47219966,3.61981446 L9.47219966,14.0721662 C9.47219966,14.6883049 9.97253194,15.1724138 10.6093185,15.1724138 C11.246105,15.1724138 11.7464373,14.6883049 11.7464373,14.0721662 L11.7464373,3.57580456 L14.088902,5.84231452 C14.4982648,6.23840364 15.1805361,6.23840364 15.6126412,5.84231452 C15.8173226,5.64426996 15.9310345,5.38021055 15.9310345,5.11615113 C15.9310345,4.83008677 15.8173226,4.56602736 15.6126412,4.3679828 Z" id="Path"></path>
            </g>
        </g>
    </g>
</svg>